<?xml version="1.0" standalone="no"?>
<!DOCTYPE svg PUBLIC "-//W3C//DTD SVG 20010904//EN"
 "http://www.w3.org/TR/2001/REC-SVG-20010904/DTD/svg10.dtd">
<svg version="1.0" xmlns="http://www.w3.org/2000/svg"
 width="160.000000pt" height="160.000000pt" viewBox="0 0 160.000000 160.000000"
 preserveAspectRatio="xMidYMid meet">
<g transform="translate(0.000000,160.000000) scale(0.050000,-0.050000)"
fill="#ffffff" stroke="none">
<path d="M1583 2865 c-12 -52 -35 -239 -52 -416 -54 -572 -112 -673 -391 -686
-203 -9 -250 28 -271 212 -24 215 -91 227 -131 24 -37 -191 -83 -232 -278
-249 -158 -14 -160 -15 -160 -69 0 -55 3 -56 162 -73 l163 -18 45 -160 c26
-88 56 -239 68 -336 24 -205 31 -221 80 -195 31 17 39 58 50 275 21 387 43
426 241 426 205 0 303 -64 360 -236 26 -80 90 -827 91 -1070 0 -50 7 -56 55
-50 l55 6 14 264 c8 145 24 300 35 344 12 44 30 182 39 306 29 374 69 422 349
433 l185 7 53 -177 c29 -97 60 -256 67 -353 11 -143 19 -175 45 -170 40 8 55
71 91 386 34 291 40 301 190 320 299 39 310 140 16 148 -124 3 -181 58 -224
215 -70 253 -87 258 -137 32 -49 -221 -71 -245 -226 -245 -287 0 -341 67 -426
530 -13 66 -31 161 -41 210 -9 50 -18 173 -19 275 -1 222 -57 273 -98 90z"/>
</g>
</svg>
